<svg width="70" height="70" fill="none" xmlns="http://www.w3.org/2000/svg"><g clip-path="url(#a)"><path d="M68.5 33.5a33.5 33.5 0 1 0-43.3 32c.3 0 .5-.1.8-.3.3-.1.5-.4.6-.8L35 37.7a4.2 4.2 0 1 0-1.8-8L22 18.5a1.4 1.4 0 0 0-2 2l11.2 11.2a4.1 4.1 0 0 0 1.2 5l-8 25.6a30.7 30.7 0 1 1 23-.8l-.8-4.1a1.4 1.4 0 0 0-2.3-.8l-8.4 7.5a1.4 1.4 0 0 0 .5 2.4L47.1 70a1.4 1.4 0 0 0 1.8-1.6l-.8-4a33.4 33.4 0 0 0 20.4-30.8ZM35 32a1.4 1.4 0 1 1 0 2.8 1.4 1.4 0 0 1 0-2.8Zm4.6 32.5 4.8-4.3 1.3 6.2-6.1-2Z" fill="#212121"/><path d="M33.6 7v2.8a1.4 1.4 0 1 0 2.8 0V7a1.4 1.4 0 0 0-2.8 0ZM8.5 32a1.4 1.4 0 0 0 0 2.9h2.8a1.4 1.4 0 1 0 0-2.8H8.5ZM61.5 34.9a1.4 1.4 0 1 0 0-2.8h-2.8a1.4 1.4 0 0 0 0 2.8h2.8Z" fill="#2196F3"/></g><defs><clipPath id="a"><path fill="#fff" d="M0 0h70v70H0z"/></clipPath></defs></svg>