<svg width="40" height="52" fill="none" xmlns="http://www.w3.org/2000/svg"><path fill-rule="evenodd" clip-rule="evenodd" d="M17.1 3H16a24 24 0 0 0-1.3 0C11 3 7.4 4 4.1 5.5l-.5.2V28l1-.4a38.4 38.4 0 0 1 11-1.9v3h-1.1A32.4 32.4 0 0 0 .7 32.5V4.1a29.7 29.7 0 0 1 15-4.1h.5a29.2 29.2 0 0 1 5.2.7v2.8c-1.2-.3-2.4-.4-3.6-.5H17Zm5 2.9h2A31.5 31.5 0 0 0 39.2 2v28a29.8 29.8 0 0 1-20.6 3.4v-28a23 23 0 0 0 3.6.5Zm14.2.2-1 .3-2.8.9a34.3 34.3 0 0 1-10.2 1h-.8V31h.6l2 .2A26.9 26.9 0 0 0 36 28.4l.4-.2V6.1Z" fill="#AFB1B8"/><path d="M2.7 42.2a1.5 1.5 0 0 0-1-.4H1a1.5 1.5 0 0 0-1 1.5v3.8c0 .3 0 .6.2.8 0 .2.2.4.3.5l.6.3h1.1a1.6 1.6 0 0 0 1-1.5v-.4h-1v.6l-.2.2-.2.2h-.2a.5.5 0 0 1-.5-.2L1 47v-3.6L1 43a.5.5 0 0 1 .5-.3.5.5 0 0 1 .4.3c.2.1.2.3.2.5v.3h1v-.4a1.8 1.8 0 0 0-.5-1.2ZM8.6 42.2a1.8 1.8 0 0 0-1.7-.3c-.2 0-.4.1-.5.3l-.4.5-.1.7v3.7l.1.7c0 .2.2.4.4.5.1.2.3.3.5.3a1.7 1.7 0 0 0 1.2 0c.2 0 .4-.1.5-.3a1.6 1.6 0 0 0 .5-1.2v-3.7l-.1-.7c0-.2-.2-.4-.4-.5ZM8.2 47a.7.7 0 0 1-.2.5.7.7 0 0 1-1 0 .7.7 0 0 1-.2-.5v-3.7A.7.7 0 0 1 7 43a.7.7 0 0 1 1 0 .7.7 0 0 1 .2.5v3.7ZM16.4 48.7v-6.9h-1l-1.2 3.7-1.3-3.7h-1v6.9h1v-4.2l1 3h.5l1-3v4.2h1ZM22 42.3l-.6-.4h-2.2v6.8h1V46h.5c.3 0 .6 0 .9-.2l.5-.5.3-.6a4.9 4.9 0 0 0 0-1.8l-.4-.6Zm-.5 2-.1.5-.3.2a1 1 0 0 1-.5 0h-.4v-2.3h.5l.4.1.3.3v1.3ZM26.6 41.8h-.8l-1.5 6.9h1l.3-1.5h1.3l.3 1.5h1l-1.6-6.9Zm-.9 4.5.5-2.5.5 2.5h-1ZM33 46l-1.6-4.2h-.9v6.9h1v-4.1l1.5 4.1h1v-6.9h-1V46ZM39 41.8l-.8 2.7-.9-2.7h-1l1.4 4v2.9h1v-3l1.3-3.9h-1ZM0 50.6h.5V52h.3v-1.4h.5v-.2H0v.2ZM4 50.4 3.4 52h.3l.1-.4h.7l.1.4H5l-.7-1.6H4Zm0 1 .1-.7.3.6h-.5ZM8 51.4h.3v.2l-.4.1a.4.4 0 0 1-.3-.1l-.2-.4c0-.4.2-.6.5-.6a.3.3 0 0 1 .4.3h.3c0-.4-.3-.6-.7-.6l-.6.2a.8.8 0 0 0-.2.7c0 .2 0 .4.2.6a.8.8 0 0 0 .6.2c.3 0 .5 0 .7-.3v-.6h-.7v.3ZM12 50.4h-.4V52h1.1v-.3H12v-1.3ZM15.3 50.4H15V52h.3v-1.6ZM18.6 51.4l-.6-1h-.3V52h.3v-1l.6 1h.3v-1.6h-.3v1ZM21.6 51.3h.8V51h-.8v-.4h.9v-.2h-1.2V52h1.2v-.3h-.9v-.4ZM29 51h-.7v-.6H28V52h.3v-.7h.6v.7h.3v-1.6H29v.6ZM32 51.3h.7V51H32v-.4h.9v-.2h-1.2V52h1.2v-.3H32v-.4ZM36 51.3c.3 0 .4-.2.4-.5a.4.4 0 0 0-.1-.3.9.9 0 0 0-.5-.1h-.7V52h.4v-.7h.2l.1.2.4.5h.4l-.2-.3-.4-.4Zm-.3-.3h-.2v-.4h.5a.2.2 0 0 1 0 .4 1 1 0 0 1-.3 0ZM39.1 51.3h.8V51h-.8v-.4h.9v-.2h-1.2V52H40v-.3h-.9v-.4Z" fill="#AFB1B8"/></svg>