<svg width="45" height="42" fill="none" xmlns="http://www.w3.org/2000/svg"><path d="m7.4 41.1.3.2-.6.4-.9.2c-.3 0-.5 0-.8-.2l-.6-.3-.4-.6a2 2 0 0 1 0-1.5l.4-.6c.2-.1.4-.3.7-.3a2.6 2.6 0 0 1 1.6 0l.6.3-.2.2H7.2l-.1-.1a1.6 1.6 0 0 0-.8-.2l-.6.1-.5.3c0 .2-.2.3-.3.5v1.2l.3.4.5.3H6.6a1.3 1.3 0 0 0 .7-.3h.1ZM13.7 40l-.1.8-.5.6-.6.3c-.5.2-1.1.2-1.7 0a2 2 0 0 1-.6-.3l-.4-.6a2 2 0 0 1 0-1.5c0-.2.2-.4.4-.6l.6-.3c.6-.2 1.2-.2 1.7 0l.6.3a1.7 1.7 0 0 1 .6 1.4Zm-.6 0v-.5a1.2 1.2 0 0 0-.8-.8 2 2 0 0 0-1.2 0l-.5.3-.3.5v1.1a1.2 1.2 0 0 0 .8.8h1.2l.4-.3c.2-.1.3-.3.3-.5l.1-.5ZM18 40.7v.1l.1-.1v-.2l1.5-2.2H20.3v3.5h-.5V39l-1.4 2.2-.2.1h-.2L16.3 39V41.9h-.5v-3.5h.6l1.4 2.2.1.2ZM23.2 40.5v1.3h-.5v-3.5h1.9c.2 0 .3.2.5.3l.2.3.1.5v.4l-.4.4-.4.2-.7.1h-.7Zm0-.4h1.1l.3-.2.2-.2V39c0-.1 0-.2-.2-.3l-.7-.2h-.7v1.5ZM30.6 41.8H30l-.4-1h-1.9l-.4 1H26.7l1.6-3.5h.6l1.7 3.5Zm-2.7-1.3h1.5l-.6-1.4-.2-.4v.4l-.7 1.4ZM33 38.3l2.4 2.7v-2.7h.5v3.5h-.4L33 39v2.7h-.5v-3.5h.4ZM39.9 40.4v1.4h-.5v-1.4l-1.5-2.1H38.5l1 1.5a2.1 2.1 0 0 1 .1.3l.1-.2.1-.1 1-1.4v-.1h.6L40 40.4ZM17.7 32.3h.8a20 20 0 0 0 8.9-6.7c2.2-3 3.3-6.4 3.2-10l-4-3.4a18 18 0 0 1-1.2 11.1 21 21 0 0 1-7.7 9Z" fill="#AFB1B8"/><path d="M16.3 32v.1c3.8-2.3 6.6-5.5 8.2-9.2 1.6-3.7 1.8-7.8.7-11.6l-5.7-5A21.5 21.5 0 0 1 16.3 32ZM35.9 19.8a18 18 0 0 1-6.8 10l-3.3 2a20 20 0 0 0 7.6-3.8c2-1.7 3.8-3.8 4.8-6.1l-2.3-2Z" fill="#AFB1B8"/><path d="m35 19.3-3.4-3c0 3.4-1.1 6.6-3.1 9.4-2 2.8-4.8 5.1-8.2 6.7l2.3-.1c3.1-1.1 5.9-3 8-5.2a17 17 0 0 0 4.3-7.8ZM16.8 4.2l-4-3.5a18.7 18.7 0 0 0-8.8 6A15 15 0 0 0 .7 16c0 3.7 1.4 7.2 4 10C7.3 29 11 31 15 32a21.2 21.2 0 0 0 1.7-27.7ZM44.1 18.7c0-4.3-2-8.5-5.5-11.5a20.5 20.5 0 0 0-20-3.8l24.3 21.2c.8-1.9 1.2-3.9 1.2-5.9Z" fill="#AFB1B8"/></svg>