<svg width="63" height="47" fill="none" xmlns="http://www.w3.org/2000/svg"><path d="M4.8 38.7c.2.3.3.7.3 1l-.1.7-.4.5c-.5.4-1.1.5-1.7.5H0v-6.2h2.8c.6 0 1.2.1 1.6.4l.4.5.2.7c0 .3-.1.7-.4 1l-.8.4c.4 0 .7.3 1 .5Zm-3.4-.9h1.2c.2 0 .5 0 .7-.2l.2-.3.1-.3v-.3l-.3-.3c-.2-.2-.5-.2-.8-.2H1.4v1.6Zm2 2.4.3-.3v-.7l-.2-.3c-.3-.2-.6-.2-.9-.2H1.4v1.7h1.2c.3 0 .6 0 .9-.2ZM10.6 41.4 9 39h-.6v2.4H7v-6.2h2.6c.7 0 1.3.2 1.8.5.4.4.6.8.6 1.3s-.1 1-.4 1.3c-.3.3-.8.5-1.2.6l1.7 2.5h-1.5Zm-2.2-3.3h1.1c.8 0 1.2-.3 1.2-.9l-.1-.4a1 1 0 0 0-.2-.3l-.9-.3H8.4v2ZM18 40.2h-2.7l-.5 1.2h-1.4l2.5-6.1h1.5l2.5 6.1h-1.4l-.5-1.2Zm-.4-1-1-2.6-1 2.6h2ZM27.3 41.4H26l-3-4.2v4.2h-1.4v-6.2h1.3l3 4.2v-4.2h1.4v6.2ZM35 40c-.2.4-.7.8-1.2 1-.6.3-1.2.4-1.9.4h-2.4v-6.2H32c.7 0 1.3.1 2 .4.4.2.9.6 1.1 1a3.4 3.4 0 0 1 0 3.3Zm-1.5-.2a2.2 2.2 0 0 0 0-3c-.5-.4-1-.6-1.7-.5h-1v4h1c.6 0 1.2-.2 1.7-.5ZM18.9.8s17.4 6 17 14.7v14.8s-17.4-6-17-14.8V.8ZM51.5 26.8c3.3-2 7-3.3 11-3.7v-4.6a22.4 22.4 0 0 0-11 8.3Z" fill="#AFB1B8"/><path d="M49.5 28.2c2.7-5 7.4-8.8 13-10.7V4.2s-24.8 8.6-24.3 21v21l2.9-1.1v-2c.6-5.8 3.6-11.1 8.4-14.9Z" fill="#AFB1B8"/><path d="M47.1 36c.2-1.4.4-2.9.9-4.3a19.4 19.4 0 0 0-5.3 12.7l4.8-2.3c-.4-2-.6-4-.4-6ZM48.1 36a19 19 0 0 0 .3 5.6c6.8-3.7 14.4-9.5 14.1-16.4v-.6c-4.8.5-9.4 2.4-12.9 5.5-.8 2-1.3 4-1.5 6Z" fill="#AFB1B8"/></svg>