<svg width="70" height="70" fill="none" xmlns="http://www.w3.org/2000/svg"><g clip-path="url(#a)"><path d="M32.6 32.7H35v10.5h-2.4V32.7ZM42 37.4h2.3v5.8H42v-5.8ZM23.3 40.9h2.4v2.3h-2.4V41ZM16.3 39.7h2.4v3.5h-2.4v-3.5Z" fill="#2196F3"/><path d="M3.5 61.9h56c1.9 0 3.5-1.6 3.5-3.5v-4.7c0-2-1.6-3.5-3.5-3.5h-1.2v-29l6.6-6.3a3.5 3.5 0 1 0-1.6-1.7l-5 4.7v-2.7c0-1.9-1.6-3.5-3.5-3.5H8.2c-2 0-3.5 1.6-3.5 3.5v35H3.5c-2 0-3.5 1.6-3.5 3.5v4.7c0 2 1.6 3.5 3.5 3.5Zm63-51.3a1.2 1.2 0 1 1 0 2.3 1.2 1.2 0 0 1 0-2.3ZM7 15.2c0-.6.5-1.1 1.2-1.1h46.6c.6 0 1.2.5 1.2 1.1v5l-2.4 2.2v-4.8c0-.7-.5-1.2-1.1-1.2h-42c-.6 0-1.2.5-1.2 1.2v29.1c0 .7.6 1.2 1.2 1.2h42c.6 0 1.1-.5 1.1-1.2V25.6l2.4-2.2v26.8H7v-35Zm10.5 15.2a3.5 3.5 0 1 0 2.4 6l4 2c.5.3 1.1.2 1.5-.2l8.6-9.7 8.4 6.3c.5.4 1.1.3 1.5 0l7.4-7v17.8H11.7V18.7h39.6v5.9l-8.2 7.8-8.6-6.4c-.5-.4-1.2-.3-1.6.1L24.2 36 21 34.3V34c0-2-1.5-3.5-3.4-3.5Zm1.2 3.5a1.2 1.2 0 1 1-2.4 0 1.2 1.2 0 0 1 2.4 0Zm7 18.7h11.6v1.1c0 .7-.5 1.2-1.2 1.2h-9.3c-.6 0-1.1-.5-1.1-1.2v-1.1ZM2.3 53.7c0-.6.6-1.1 1.2-1.1h19.8v1.1c0 2 1.6 3.5 3.5 3.5h9.3c2 0 3.5-1.5 3.5-3.5v-1.1h19.9c.6 0 1.1.5 1.1 1.1v4.7c0 .6-.5 1.2-1.1 1.2h-56c-.6 0-1.2-.6-1.2-1.2v-4.7Z" fill="#212121"/></g><defs><clipPath id="a"><path fill="#fff" d="M0 0h70v70H0z"/></clipPath></defs></svg>