<svg width="85" height="42" fill="none" xmlns="http://www.w3.org/2000/svg"><path d="M13.1 13.1c-2.4 0-4.3 1.7-4.3 3.9 0 2.1 2 3.8 4.3 3.8 2.4 0 4.4-1.7 4.4-3.8 0-2.2-2-3.9-4.4-3.9ZM45.2 11.9c0-3-1.3-5.8-3.7-8C39.2 2 36 .8 32.6.8c-3.3 0-6.5 1.2-8.9 3.3-2.3 2-3.6 5-3.6 7.9v16.3s25-2.5 25-16.3ZM0 33.5c0 2.1 1 4 2.6 5.5a9.4 9.4 0 0 0 6.1 2.3c2.4 0 4.6-.8 6.2-2.3a7.4 7.4 0 0 0 2.6-5.4V22.2S0 23.9 0 33.5Zm8.7 2c-.4 0-.9 0-1.2-.3-.4-.2-.7-.5-.9-.9-.1-.3-.2-.8-.1-1.1 0-.4.3-.8.6-1 .3-.4.8-.6 1.2-.6h1.3c.4.2.8.5 1 .8a1.9 1.9 0 0 1-.2 2.6l-.8.4-.9.2ZM26.4 34.5h-1.7v1.7H24V32h2.7v.8h-1.9v1h1.7v.8Zm4.2-.3c0 .4 0 .8-.2 1a1.7 1.7 0 0 1-1.6 1c-.3 0-.6 0-1-.2l-.6-.7-.2-1.1V34c0-.4 0-.8.2-1.1a1.7 1.7 0 0 1 1.6-1c.4 0 .7 0 1 .2.2.2.5.5.6.8.2.3.2.7.2 1v.3Zm-.8-.2c0-.5-.1-.8-.3-1a.8.8 0 0 0-.7-.4c-.3 0-.5.1-.7.4l-.2 1v.2c0 .4 0 .7.2 1 .2.2.4.3.7.3.3 0 .6 0 .7-.3.2-.2.2-.6.3-1V34Zm3.7 1s0-.2-.2-.3l-.6-.3c-.3 0-.6-.2-.7-.3-.5-.2-.8-.6-.8-1l.2-.6c.2-.2.3-.4.6-.5l.8-.1.8.1.6.5.2.7h-.9c0-.2 0-.3-.2-.5a.8.8 0 0 0-.5-.1l-.5.1-.2.4c0 .1 0 .2.2.3l.6.3c.5.1.9.3 1.1.5.3.3.4.5.4.9s-.2.6-.4.9c-.3.2-.7.3-1.2.3-.3 0-.6 0-.9-.2l-.6-.5-.2-.7h.9c0 .4.3.7.8.7.2 0 .4 0 .5-.2l.2-.3Zm4.7-2.3h-1.3v3.5H36v-3.5h-1.3v-.8h3.5v.8Zm3 1.7h-1.6v1.1h2v.7h-3V32h3v.8h-2v1h1.7v.7Zm2.4.2H43v1.6h-.8V32h1.5c.6 0 1 .2 1.2.4.3.2.4.5.4 1 0 .2 0 .5-.2.7 0 .2-.3.3-.5.4l.9 1.8h-1l-.8-1.6ZM43 34h.8l.5-.1.1-.5-.1-.5-.6-.1H43v1.2Zm5.4.8v1.5h-1V32h1.8l.8.2.6.5.2.8c0 .4-.2.7-.5 1-.3.2-.7.3-1.2.3h-.7Zm0-.7h.8c.2 0 .4 0 .5-.2l.2-.4c0-.2 0-.4-.2-.5a.7.7 0 0 0-.5-.2h-.8V34Zm5.5.4h-1.7v1.1h2v.7h-2.8V32H54v.8h-2v1h1.7v.7Zm4.1-1.7h-1.3v3.5h-.9v-3.5h-1.3v-.8H58v.8Zm3 1.7h-1.6v1.1h2v.7h-2.9V32h2.9v.8h-2v1H61v.7Zm2.5.2h-.7v1.6h-1V32h1.7c.5 0 .9.2 1.1.4.3.2.4.5.4 1l-.1.7-.6.4 1 1.8h-1l-.8-1.6Zm-.7-.7h.7l.5-.1.2-.5c0-.2 0-.4-.2-.5l-.5-.1h-.7v1.2Zm5.1 1.2-.1-.4-.7-.3c-.3 0-.5-.2-.7-.3-.5-.2-.7-.6-.7-1 0-.3 0-.5.2-.6 0-.2.3-.4.5-.5l.8-.1.9.1.5.5.2.7h-.9c0-.2 0-.3-.2-.5a.8.8 0 0 0-.5-.1l-.5.1-.2.4.3.3.6.3c.5.1.8.3 1 .5.3.3.4.5.4.9s-.1.6-.4.9c-.3.2-.7.3-1.1.3-.4 0-.7 0-1-.2l-.6-.5-.2-.7h1c0 .4.2.7.8.7.2 0 .3 0 .5-.2l.1-.3Z" fill="#2196F3"/></svg>