<svg width="66" height="70" fill="none" xmlns="http://www.w3.org/2000/svg"><path d="M65.3 48.3 46.8 29.7l2.1-10c.5.1 1 .3 1.7.3a4.7 4.7 0 1 0-4.4-3.2l-10.9 1.3L17.6.3c-.2-.2-.5-.3-.8-.3-.3 0-.6.1-.8.3l-3.3 3.3c-.5.5-.5 1.2 0 1.7L14.5 7a32.7 32.7 0 0 0 5.8 38.8l-.1 1.2v13.6h-14a5.8 5.8 0 0 0-5.9 5.8v2.3c0 .7.6 1.2 1.2 1.2h53.7c.6 0 1.1-.5 1.1-1.2v-2.3c0-3.2-2.6-5.8-5.8-5.8h-14v-6a32.9 32.9 0 0 0 22-3.2l1.9 1.8c.2.2.5.3.8.3.3 0 .6-.1.8-.3l3.3-3.3c.5-.5.5-1.2 0-1.7ZM49 13.6a2.3 2.3 0 1 1 1.7 4 2.3 2.3 0 0 1-1.7-4Zm-2.7 7.7-1.3 6.4-2.6-2.5 3.9-3.9Zm-1.3-2-4.2 4.2-3.3-3.3 7.5-.9ZM50.5 63c2 0 3.5 1.6 3.5 3.5v1.2H2.7v-1.2c0-2 1.5-3.5 3.5-3.5h44.3Zm-16.3-4.7v2.4H22.5v-2.4h11.7ZM22.5 56v-8.9c0-2.8 2.6-5.1 5.8-5.1 3.3 0 5.9 2.3 5.9 5.1V56H22.5Zm14-3.7V47c0-4-3.7-7.4-8.2-7.4-2.9 0-5.6 1.4-7.1 3.9a30.3 30.3 0 0 1-5-34.8l40.7 41a30.2 30.2 0 0 1-20.4 2.5Zm24.7-1.5L59.6 49l-42.8-43L15 4.5l1.7-1.7L34 20.3 63 49l-1.7 1.7Z" fill="#212121"/><path d="M28.4 44.3a3.5 3.5 0 0 0 0 7 3.5 3.5 0 1 0 0-7Zm.8 4.4a1.2 1.2 0 1 1-.9-2 1.2 1.2 0 0 1 .9 2Z" fill="#2196F3"/></svg>