<svg width="20" height="20" fill="none" xmlns="http://www.w3.org/2000/svg"><g clip-path="url(#a)" fill="#fff"><path d="M20 5.9c0-1-.2-1.8-.5-2.4-.2-.7-.6-1.3-1.1-1.8A5 5 0 0 0 16.6.5 68.2 68.2 0 0 0 3.5.5c-.7.3-1.3.7-1.8 1.2A5 5 0 0 0 .6 3.4C.3 4.1 0 4.8 0 6a68.2 68.2 0 0 0 .5 10.7 5 5 0 0 0 1.1 1.7 5 5 0 0 0 1.8 1.2c.6.2 1.3.4 2.4.4a73.2 73.2 0 0 0 10.7-.4 5.1 5.1 0 0 0 3-3l.4-2.4A73.4 73.4 0 0 0 20 6ZM18.2 14c0 1-.2 1.5-.4 1.9-.3.9-1 1.6-1.9 1.9-.3.1-.8.3-1.8.3a70.4 70.4 0 0 1-10-.3 3 3 0 0 1-1.1-.7c-.3-.4-.6-.8-.7-1.2-.2-.3-.4-.9-.4-1.9a70.4 70.4 0 0 1 .4-9.9c.1-.4.4-.8.7-1.1.3-.4.7-.6 1.1-.8.4-.1 1-.3 2-.3a70.5 70.5 0 0 1 9.8.3c.5.2.9.4 1.2.8.3.3.6.7.7 1.1.2.4.3.9.4 1.9a70.5 70.5 0 0 1 0 8Z"/><path d="M10 4.9A5.1 5.1 0 1 0 10 15 5.1 5.1 0 0 0 10 5Zm0 8.4a3.3 3.3 0 1 1 0-6.6 3.3 3.3 0 0 1 0 6.6ZM16.6 4.7a1.2 1.2 0 1 1-2.4 0 1.2 1.2 0 0 1 2.4 0Z"/></g><defs><clipPath id="a"><path fill="#fff" d="M0 0h20v20H0z"/></clipPath></defs></svg>