<svg width="94" height="45" fill="none" xmlns="http://www.w3.org/2000/svg"><path d="M47.4 21.4a3 3 0 0 1-.6-2v-2.9c0-.8.2-1.5.6-2 .4-.4 1.1-.7 2-.7 1 0 1.7.2 2 .6.5.5.7 1.1.6 1.7v.7h-1.6V15.5c0-.2-.2-.3-.3-.4a1 1 0 0 0-.6-.2 1 1 0 0 0-.6.2c-.2 0-.3.2-.3.4v4.2l.1 1 .4.2.4.1c.2 0 .4 0 .6-.2l.2-.4V19H52v.7c0 .6-.1 1.2-.5 1.8-.4.4-1 .6-2 .6s-1.7-.2-2-.7ZM54.3 21.4c-.5-.4-.7-1-.7-2v-3c0-.8.2-1.5.7-2 .4-.3 1-.6 2-.6s1.7.3 2.1.7c.4.4.6 1 .6 2v3c0 .8-.2 1.5-.6 2-.4.4-1.1.6-2 .6-1 0-1.7-.2-2.1-.7Zm2.8-.7.2-.9v-3.7c0-.3 0-.6-.2-.9l-.3-.2a1 1 0 0 0-.5 0 1 1 0 0 0-.4 0l-.3.2c-.2.3-.3.6-.2.9v3.7c0 .3 0 .6.2 1l.3.2a1.2 1.2 0 0 0 .9 0l.3-.3ZM61 14h1.8l1.3 5.5 1.4-5.6h1.7l.1 8.1h-1.2l-.2-5.6-1.3 5.6h-1l-1.3-5.6L62 22h-1.3l.2-8ZM69.3 14h2.8c1.6 0 2.4.7 2.4 2.2 0 1.5-.9 2.2-2.5 2.2h-1V22h-1.7v-8Zm2.4 3.4h.5l.4-.3.3-.9-.1-.7-.1-.2-.3-.2c-.2-.1-.5-.2-.7-.1H71v2.4h.7ZM77 14h1.7l2 8H79l-.3-1.9H77l-.4 1.9H75l2-8Zm1.5 5.2-.7-3.4-.6 3.4h1.3ZM82.1 14h1.2l2.3 4.5V14H87V22h-1.1l-2.3-4.8V22H82v-8ZM90.3 19l-1.9-5H90l1.2 3.1 1-3.2h1.6l-1.9 5V22h-1.6v-3ZM50 25.5v.5h-1.3v3.2H48V26h-1.4v-.5H50ZM54.4 29.2h-.7l-.4-1h-1.9l-.4 1H50.4l1.7-3.7h.6l1.7 3.7ZM51.6 28h1.6l-.7-1.5-.1-.4v.2l-.1.2-.7 1.5ZM57.3 28.9h.3a2 2 0 0 0 .6-.1l.2-.1v-.9H57.6v-.3h1.3v1.4a2.6 2.6 0 0 1-1.1.4h-.5c-.3 0-.6 0-.9-.2a2 2 0 0 1-.7-.3l-.4-.6-.2-.8c0-.3 0-.5.2-.8 0-.2.2-.4.4-.6.2-.1.4-.3.7-.3a2.9 2.9 0 0 1 1.4-.2 2.3 2.3 0 0 1 .7.3l.3.2-.1.2h-.4L58 26a2.1 2.1 0 0 0-.7-.2 2 2 0 0 0-.7.2l-.5.2-.3.5V28c0 .2.2.4.4.5a1.5 1.5 0 0 0 1.1.4ZM62.7 28.8h1.9v.4h-2.4v-3.7h.5v3.3ZM66.5 29.2H66v-3.7h.6v3.7ZM68.7 25.5v.1l2.6 2.8V25.5h.5v3.7h-.5l-2.5-2.8V29.3h-.5v-3.7h.3ZM76 25.5v.4h-2v1.3h1.6v.4H74v1.2h2v.4h-2.6v-3.7H76ZM15.2 2.7 41 9V31l-25.8-6.3V2.7Zm-1.7-2V26L42.6 33V8L13.6.7Z" fill="#AFB1B8"/><path d="M29.1 44.7 0 37.6V12.4l29.1 7.2v25Z" fill="#AFB1B8"/><path d="m14 2.4 25.4 6.2L28.6 18 3.2 11.7 14 2.4ZM13.5.8 0 12.4l29.1 7.2L42.6 7.9 13.6.8ZM30.7 43.3l12-10.3-12-2.9v13.2Z" fill="#AFB1B8"/></svg>