<svg width="41" height="47" fill="none" xmlns="http://www.w3.org/2000/svg"><path fill-rule="evenodd" clip-rule="evenodd" d="m6 0 7 6.6H0v32.2h34V26.5l7 6.6V0H6Zm27.7 25.7L13.8 7h19.9v18.8Zm-6.2 8.4H5.4V12.5h1.5v20.1h20.6v1.5Zm-16.9 9-.8 1.7L9 43h-.7l1.2 2.2v1.4h.6v-1.4l1.2-2.2h-.7Zm1 3.6.3-.9h1.4l.3.9h.6L13 43h-.6L11 46.7h.6Zm1-2.8.5 1.4h-1l.5-1.4Zm3.3 1.3-.2.5c0 .3.1.5.4.7.2.2.4.3.8.3.3 0 .6 0 .9-.3l.2.3h.7l-.5-.7c.2-.2.3-.6.3-1H18c0 .2 0 .4-.2.6l-.7-.8.3-.2.3-.3a.8.8 0 0 0-.1-1 .9.9 0 0 0-.6-.2 1 1 0 0 0-.7.2c-.2.2-.3.4-.3.7l.1.3.3.5a2 2 0 0 0-.5.4Zm1.6.8a1 1 0 0 1-.6.2l-.4-.1a.5.5 0 0 1-.2-.4c0-.2.1-.4.3-.5h.1l.8.8Zm-.7-1.5-.2-.6v-.3H17.3l.1.3-.1.3-.4.3Zm5.8 1.9c.3-.2.4-.5.4-.9h-.6c0 .3 0 .4-.2.5-.1.2-.3.2-.6.2a.7.7 0 0 1-.6-.3l-.2-.9v-.3c0-.4.1-.7.3-.9.1-.2.3-.2.6-.2l.5.1.2.6h.6c0-.4-.1-.7-.4-1l-1-.2c-.2 0-.5 0-.7.2l-.5.5a2 2 0 0 0-.2 1v.3c0 .3 0 .6.2.8.1.3.3.5.5.6l.7.2c.5 0 .8-.1 1-.3Zm3.7-.5.1-1v-.1c0-.4 0-.7-.2-1a1.4 1.4 0 0 0-1.2-.7c-.3 0-.6 0-.8.2-.2.1-.4.3-.5.6-.2.2-.2.5-.2.9v.2c0 .3 0 .6.2.9 0 .3.3.5.5.6l.8.2c.3 0 .5 0 .7-.2.3-.1.4-.4.6-.6Zm-.7-2 .2.9v.2c0 .4 0 .7-.2.9l-.6.3a.7.7 0 0 1-.7-.3l-.2-1v-.1c0-.4 0-.7.2-1l.7-.2c.2 0 .4 0 .6.3Z" fill="#AFB1B8"/></svg>