<svg aria-hidden="true" style="position: absolute; width: 0; height: 0; overflow: hidden;" version="1.1" xmlns="http://www.w3.org/2000/svg" xmlns:xlink="http://www.w3.org/1999/xlink">
<defs>
<symbol id="icon-astronaut1" viewBox="0 0 32 32">
<path  d="M31.973 4.526c-0.059-0.192-0.229-0.334-0.43-0.366l-1.911-0.274-0.855-1.737c-0.178-0.361-0.777-0.361-0.955 0l-0.85 1.737-1.911 0.274c-0.262 0.038-0.46 0.261-0.46 0.53 0 0.151 0.063 0.287 0.163 0.385l0 0 1.385 1.344-0.325 1.902c-0.005 0.026-0.007 0.056-0.007 0.087 0 0.295 0.239 0.535 0.535 0.535 0.089 0 0.174-0.022 0.248-0.061l-0.003 0.001 1.71-0.896 1.705 0.896c0.072 0.039 0.158 0.062 0.25 0.062 0.295 0 0.535-0.239 0.535-0.535 0-0.032-0.003-0.063-0.008-0.093l0 0.003-0.329-1.902 1.385-1.349c0.146-0.137 0.197-0.352 0.137-0.549zM29.513 5.851c-0.128 0.123-0.183 0.297-0.155 0.471l0.192 1.115-1.001-0.526c-0.072-0.039-0.158-0.062-0.249-0.062s-0.177 0.023-0.252 0.064l0.003-0.001-1.001 0.526 0.192-1.115c0.032-0.174-0.027-0.347-0.151-0.471l-0.814-0.791 1.12-0.16c0.174-0.027 0.325-0.137 0.402-0.293l0.503-1.015 0.498 1.015c0.078 0.155 0.229 0.265 0.402 0.293l1.12 0.16-0.809 0.791zM26.135 20.526h-1.070v1.065h1.070v-1.070zM26.135 22.656h-1.070v1.065h1.070v-1.065zM27.2 21.591h-1.065v1.065h1.065v-1.065zM25.065 21.591h-1.065v1.065h1.065v-1.065zM22.4 26.391h-1.065v1.065h1.065v-1.065zM22.4 28.526h-1.065v1.065h1.065v-1.070zM23.465 27.456h-1.065v1.065h1.065v-1.065zM21.335 27.456h-1.070v1.065h1.070v-1.065zM16 24.256h-1.065v1.065h1.065v-1.065zM16 26.391h-1.065v1.065h1.065v-1.065zM17.065 25.326h-1.065v1.065h1.065v-1.070zM14.935 25.326h-1.070v1.065h1.070v-1.070zM5.865 6.126h-1.065v1.065h1.065v-1.070zM5.865 8.256h-1.065v1.065h1.065v-1.065zM6.935 7.191h-1.070v1.065h1.070v-1.065zM4.8 7.191h-1.065v1.065h1.065v-1.065z"></path>
<path d="M24.713 14.158c-0.28-0.376-0.699-0.636-1.179-0.703l-0.009-0.001c-0.076-0.012-0.164-0.018-0.253-0.018-0.411 0-0.789 0.139-1.090 0.373l0.004-0.003-1.248 0.96-1.902 1.417-1.358-0.539c2.423-1.088 4.114-3.506 4.114-6.322 0-3.822-3.122-6.93-6.962-6.93s-6.958 3.109-6.958 6.93c0 1.39 0.411 2.674 1.12 3.762l-2.77-0.027-0.023 0.005c-0.055 0-0.105 0.014-0.155 0.032l-0.037 0.014-0.023 0.005-3.232 1.6-1.893 0.91c-0.506 0.32-0.837 0.877-0.837 1.511 0 0.985 0.798 1.783 1.783 1.783 0.303 0 0.588-0.075 0.838-0.209l-0.010 0.005 1.385-0.736 2.263-1.17 1.358-0.009-6.779 6.757c-0.306 0.299-0.496 0.716-0.496 1.177s0.19 0.878 0.495 1.177l0 0c0.302 0.302 0.719 0.488 1.179 0.488s0.878-0.187 1.179-0.488v0l1.307-1.312 1.742-1.298 0.901 0.896-1.76 1.755-1.339 1.33c-0.307 0.299-0.498 0.717-0.498 1.179s0.191 0.88 0.498 1.179l0 0c0.302 0.302 0.719 0.488 1.179 0.488s0.878-0.187 1.179-0.488v0l3.483-3.47 1.015-1.006h-0.005l0.018-0.018 5.166-5.659 3.474 0.498c0.019 0.003 0.041 0.004 0.063 0.004 0.071 0 0.139-0.015 0.201-0.042l-0.003 0.001 0.050-0.023c0.018-0.009 0.041-0.014 0.059-0.027l3.214-2.13 0.027-0.032 0.041-0.023 1.271-1.193c0.347-0.326 0.562-0.788 0.562-1.3 0-0.401-0.132-0.771-0.355-1.068l0.003 0.005zM2.13 17.769c-0.109 0.071-0.243 0.113-0.386 0.113-0.396 0-0.716-0.321-0.716-0.716 0-0.252 0.13-0.474 0.327-0.602l0.003-0.002 1.317-0.631 0.315 0.923 0.133 0.389-0.992 0.526zM5.627 15.941l-1.55 0.8-0.256-0.741-0.183-0.535 2.030-1.006-0.041 1.486zM20.727 9.326c0 0.919-0.219 1.783-0.599 2.56l-4.183-1.897c-0.042-0.576-0.341-1.074-0.78-1.386l-0.006-0.004 1.463-4.859c2.377 0.754 4.105 2.971 4.105 5.586zM8.937 9.326c0.011-3.243 2.643-5.868 5.888-5.868 0.266 0 0.528 0.018 0.784 0.052l-0.030-0.003-1.435 4.754-0.055-0.005c0 0 0 0-0 0-1.032 0-1.869 0.834-1.874 1.865v0.001c0.012 1.026 0.847 1.852 1.874 1.852 0.687 0 1.287-0.369 1.614-0.92l0.005-0.009 3.858 1.755c-1.085 1.458-2.804 2.393-4.741 2.393-3.245 0-5.878-2.624-5.893-5.866v-0.001zM14.894 10.126c0 0.446-0.361 0.807-0.807 0.807s-0.807-0.361-0.807-0.807v0c0-0.439 0.366-0.8 0.809-0.8s0.805 0.361 0.805 0.8zM2.469 25.147c-0.233 0.233-0.617 0.229-0.855 0-0.109-0.108-0.177-0.257-0.177-0.423s0.068-0.315 0.177-0.423l0.96-0.96 0.855 0.85-0.965 0.951zM5.682 28.878c-0.233 0.238-0.617 0.238-0.855 0-0.108-0.108-0.174-0.256-0.174-0.421s0.067-0.313 0.174-0.421v0l0.96-0.96 0.855 0.846-0.96 0.96zM9.166 25.413l-1.769 1.76-0.85-0.85 1.765-1.751c0.041-0.046 0.064-0.091 0.091-0.137l0.023-0.046c0.018-0.037 0.023-0.082 0.027-0.123 0-0.027 0.014-0.046 0.014-0.073 0-0.037-0.014-0.073-0.018-0.105l-0.018-0.096c-0.023-0.050-0.055-0.091-0.091-0.137l-0.027-0.041-1.609-1.6c-0.014-0.018-0.037-0.023-0.055-0.037-0.032-0.023-0.059-0.046-0.091-0.059-0.026-0.012-0.056-0.023-0.088-0.031l-0.003-0.001c-0.029-0.010-0.063-0.018-0.098-0.023l-0.003-0c-0.032 0-0.064 0-0.096 0.009-0.037 0-0.069 0.009-0.105 0.018-0.032 0.009-0.064 0.027-0.091 0.046-0.023 0.009-0.046 0.014-0.064 0.027l-1.774 1.326-0.901-0.901 2.4-2.386 4.361 4.293-0.928 0.914zM15.982 18.395h-0.046c-0.007-0-0.016-0.001-0.025-0.001-0.137 0-0.262 0.052-0.355 0.138l0-0-0.041 0.032-4.699 5.143-4.325-4.251 2.834-2.821c0.098-0.097 0.158-0.231 0.158-0.379 0-0.295-0.239-0.535-0.535-0.535-0.002 0-0.005 0-0.007 0h0l-2.217 0.014 0.027-1.609 3.104 0.027c1.263 1.296 3.026 2.099 4.977 2.099 0.455 0 0.899-0.044 1.33-0.127l-0.044 0.007c0.037 0.032 0.078 0.064 0.128 0.087l2.409 0.96 0.151 0.759 0.183 0.882-3.008-0.425zM20.023 18.574l-0.311-1.559 1.445-1.079 0.379 0.503 0.567 0.75-2.080 1.385zM23.781 15.739l-0.841 0.786-0.928-1.234 0.827-0.64c0.122-0.093 0.276-0.149 0.443-0.149 0.037 0 0.074 0.003 0.11 0.008l-0.004-0.001c0.352 0.050 0.62 0.349 0.62 0.711 0 0.206-0.087 0.392-0.226 0.523l-0 0z"></path>
<path  d="M13.6 18.546l-2.139-2.135c-0.097-0.096-0.23-0.156-0.377-0.156s-0.28 0.059-0.377 0.156l0-0-2.144 2.135c-0.096 0.097-0.156 0.23-0.156 0.377s0.059 0.28 0.156 0.377l-0-0 2.144 2.135c0.097 0.096 0.23 0.156 0.377 0.156s0.28-0.059 0.377-0.156l-0 0 2.139-2.135c0.096-0.097 0.156-0.23 0.156-0.377s-0.059-0.28-0.156-0.377l0 0zM11.086 20.302l-1.394-1.376 1.385-1.381 1.39 1.381-1.39 1.381zM17.166 5.074l-0.261 1.033c0.073 0.018 1.737 0.453 1.737 2.149h1.070c0-2.016-1.669-2.967-2.546-3.186zM19.712 9.326h-1.070v1.065h1.070v-1.070z"></path>
</symbol>
<symbol id="icon-clock1" viewBox="0 0 32 32">
<path  d="M31.314 15.314c0-0.005 0-0.010 0-0.016 0-8.458-6.856-15.314-15.314-15.314s-15.314 6.856-15.314 15.314c0 6.859 4.51 12.665 10.726 14.615l0.108 0.029c0.137 0 0.229-0.046 0.366-0.137 0.137-0.046 0.229-0.183 0.274-0.366l3.84-12.206c1.058-0.003 1.915-0.861 1.915-1.92 0-1.060-0.86-1.92-1.92-1.92-0.297 0-0.578 0.067-0.829 0.188l0.012-0.005-5.12-5.12c-0.117-0.117-0.279-0.189-0.457-0.189-0.357 0-0.646 0.289-0.646 0.646 0 0.179 0.072 0.34 0.189 0.457l5.12 5.12c-0.114 0.235-0.18 0.511-0.18 0.802 0 0.602 0.284 1.137 0.725 1.48l0.004 0.003-3.657 11.703c-5.431-2.020-9.229-7.159-9.229-13.186 0-7.751 6.283-14.034 14.034-14.034s14.034 6.283 14.034 14.034c0 5.684-3.379 10.578-8.237 12.785l-0.088 0.036-0.366-1.874c-0.057-0.3-0.317-0.524-0.63-0.524-0.162 0-0.31 0.060-0.423 0.159l0.001-0.001-3.84 3.429c-0.137 0.118-0.223 0.292-0.223 0.485 0 0.286 0.188 0.529 0.447 0.61l0.005 0.001 4.891 1.6c0.058 0.019 0.125 0.030 0.195 0.030 0.353 0 0.64-0.287 0.64-0.64 0-0.043-0.004-0.085-0.012-0.126l0.001 0.004-0.366-1.829c5.527-2.379 9.326-7.778 9.326-14.065 0-0.005 0-0.011 0-0.016v0.001zM16 14.629c0.353 0 0.64 0.287 0.64 0.64s-0.287 0.64-0.64 0.64v0c-0.353 0-0.64-0.287-0.64-0.64s0.287-0.64 0.64-0.64v0zM18.103 29.486l2.194-1.966 0.594 2.834-2.789-0.914z"></path>
<path d="M15.36 3.2v1.28c0 0.353 0.287 0.64 0.64 0.64s0.64-0.287 0.64-0.64v-1.28c0-0.353-0.287-0.64-0.64-0.64s-0.64 0.287-0.64 0.64v0zM3.886 14.629c-0.366 0-0.663 0.297-0.663 0.663s0.297 0.663 0.663 0.663h1.28c0.353 0 0.64-0.287 0.64-0.64s-0.287-0.64-0.64-0.64h-1.28zM28.114 15.954c0.353 0 0.64-0.287 0.64-0.64s-0.287-0.64-0.64-0.64h-1.28c-0.353 0-0.64 0.287-0.64 0.64s0.287 0.64 0.64 0.64h1.28z"></path>
</symbol>
<symbol id="icon-company" viewBox="0 0 25 32">
<path  d="M10.523 1.846h-0.677c-0.119-0.003-0.259-0.005-0.4-0.005s-0.281 0.002-0.421 0.006l0.021-0c-2.277 0-4.492 0.615-6.523 1.538l-0.308 0.123v13.723l0.615-0.246c2.011-0.683 4.33-1.106 6.739-1.169l0.031-0.001v1.846h-0.677c-3.131 0.148-6.034 0.997-8.597 2.391l0.105-0.052v-17.477c2.642-1.58 5.826-2.516 9.229-2.523h0.31c1.163 0.052 2.26 0.206 3.322 0.455l-0.122-0.024v1.723c-0.738-0.185-1.477-0.246-2.215-0.308h-0.492zM13.6 3.631h1.231c3.41-0.009 6.611-0.898 9.391-2.45l-0.098 0.050v17.231c-2.622 1.533-5.773 2.438-9.136 2.438-1.253 0-2.477-0.126-3.659-0.365l0.118 0.020v-17.231c0.642 0.149 1.4 0.259 2.176 0.306l0.040 0.002zM22.338 3.754l-0.615 0.185-1.723 0.554c-1.553 0.409-3.337 0.644-5.175 0.644-0.388 0-0.773-0.010-1.155-0.031l0.053 0.002h-0.492v13.969h0.369l1.231 0.123c2.669-0.005 5.188-0.641 7.418-1.766l-0.095 0.043 0.246-0.123v-13.6z"></path>
<path d="M1.662 25.969c-0.161-0.15-0.377-0.243-0.615-0.246h-0.431c-0.362 0.13-0.617 0.471-0.617 0.871 0 0.018 0.001 0.037 0.002 0.055l-0-0.003v2.338c0 0.185 0 0.369 0.123 0.492 0 0.123 0.123 0.246 0.185 0.308l0.369 0.185h0.677c0.364-0.15 0.615-0.502 0.615-0.913 0-0.004-0-0.007-0-0.011v0.001-0.246h-0.615v0.369l-0.246 0.246h-0.123c-0.017 0.003-0.037 0.005-0.058 0.005-0.103 0-0.194-0.050-0.249-0.128l-0.001-0.001-0.062-0.369v-2.462c0.048-0.11 0.157-0.186 0.282-0.186 0.009 0 0.018 0 0.026 0.001l-0.001-0c0.111 0.014 0.203 0.085 0.245 0.183l0.001 0.002c0.123 0.062 0.123 0.185 0.123 0.308v0.185h0.615v-0.246c-0.008-0.287-0.123-0.546-0.308-0.739l0 0zM5.292 25.969c-0.188-0.151-0.429-0.243-0.692-0.243-0.127 0-0.248 0.021-0.362 0.060l0.008-0.002c-0.123 0-0.246 0.062-0.308 0.185l-0.246 0.308-0.062 0.431v2.277l0.062 0.431c0 0.123 0.123 0.246 0.246 0.308 0.062 0.123 0.185 0.185 0.308 0.185 0.11 0.043 0.237 0.067 0.369 0.067s0.26-0.025 0.376-0.070l-0.007 0.002c0.123 0 0.246-0.062 0.308-0.185 0.19-0.18 0.308-0.434 0.308-0.715 0-0.008-0-0.016-0-0.024l0 0.001v-2.277l-0.062-0.431c0-0.123-0.123-0.246-0.246-0.308zM5.046 28.923c0 0.002 0 0.004 0 0.006 0 0.117-0.047 0.224-0.123 0.302l0-0c-0.078 0.080-0.187 0.129-0.308 0.129s-0.229-0.049-0.308-0.129l-0-0c-0.076-0.078-0.123-0.184-0.123-0.302 0-0.002 0-0.004 0-0.006v0-2.277c0.025-0.074 0.068-0.136 0.123-0.184l0-0c0.078-0.080 0.187-0.129 0.308-0.129s0.229 0.049 0.308 0.129l0 0c0.076 0.078 0.123 0.184 0.123 0.302 0 0.002-0 0.004-0 0.006v-0 2.277zM10.092 29.969v-4.246h-0.615l-0.738 2.277-0.8-2.277h-0.615v4.246h0.615v-2.585l0.615 1.846h0.308l0.615-1.846v2.585h0.615zM13.538 26.031l-0.369-0.246h-1.354v4.185h0.615v-1.662h0.308c0.185 0 0.369 0 0.554-0.123l0.308-0.308 0.185-0.369c0.033-0.167 0.051-0.358 0.051-0.554s-0.019-0.387-0.054-0.573l0.003 0.019-0.246-0.369zM13.231 27.262l-0.062 0.308-0.185 0.123c-0.046 0.012-0.099 0.020-0.154 0.020s-0.108-0.007-0.158-0.020l0.004 0.001h-0.246v-1.415h0.308l0.246 0.062 0.185 0.185v0.8zM16.369 25.723h-0.492l-0.923 4.246h0.615l0.185-0.923h0.8l0.185 0.923h0.615l-0.985-4.246zM15.815 28.492l0.308-1.538 0.308 1.538h-0.615zM20.308 28.308l-0.985-2.585h-0.554v4.246h0.615v-2.523l0.923 2.523h0.615v-4.246h-0.615v2.585zM24 25.723l-0.492 1.662-0.554-1.662h-0.615l0.862 2.462v1.785h0.615v-1.846l0.8-2.4h-0.615zM0 31.138h0.308v0.862h0.185v-0.862h0.308v-0.123h-0.8v0.123zM2.462 31.015l-0.369 0.985h0.185l0.062-0.246h0.431l0.062 0.246h0.246l-0.431-0.985h-0.185zM2.462 31.631l0.062-0.431 0.185 0.369h-0.308zM4.923 31.631h0.185v0.123l-0.246 0.062c-0.006 0.001-0.013 0.001-0.021 0.001-0.063 0-0.12-0.024-0.164-0.063l0 0-0.123-0.246c0-0.246 0.123-0.369 0.308-0.369 0.018-0.007 0.040-0.011 0.062-0.011 0.102 0 0.185 0.083 0.185 0.185 0 0.004-0 0.007-0 0.011l0-0h0.185c0-0.246-0.185-0.369-0.431-0.369l-0.369 0.123c-0.082 0.088-0.132 0.206-0.132 0.336 0 0.034 0.003 0.066 0.010 0.098l-0.001-0.003c0 0.123 0 0.246 0.123 0.369 0.087 0.077 0.202 0.125 0.328 0.125 0.015 0 0.029-0.001 0.043-0.002l-0.002 0c0.185 0 0.308 0 0.431-0.185v-0.369h-0.431v0.185zM7.385 31.015h-0.246v0.985h0.677v-0.185h-0.431v-0.8zM9.415 31.015h-0.185v0.985h0.185v-0.985zM11.446 31.631l-0.369-0.615h-0.185v0.985h0.185v-0.615l0.369 0.615h0.185v-0.985h-0.185v0.615zM13.292 31.569h0.492v-0.185h-0.492v-0.246h0.554v-0.123h-0.738v0.985h0.738v-0.185h-0.554v-0.246zM17.846 31.385h-0.431v-0.369h-0.185v0.985h0.185v-0.431h0.369v0.431h0.185v-0.985h-0.123v0.369zM19.692 31.569h0.431v-0.185h-0.431v-0.246h0.554v-0.123h-0.738v0.985h0.738v-0.185h-0.554v-0.246zM22.154 31.569c0.185 0 0.246-0.123 0.246-0.308 0.001-0.006 0.001-0.013 0.001-0.021 0-0.063-0.024-0.12-0.063-0.164l0 0c-0.075-0.040-0.164-0.064-0.258-0.064-0.017 0-0.035 0.001-0.052 0.002l0.002-0h-0.431v0.985h0.246v-0.431h0.123l0.062 0.123 0.246 0.308h0.246l-0.123-0.185-0.246-0.246zM21.969 31.385h-0.123v-0.246h0.308c0.068 0 0.123 0.055 0.123 0.123s-0.055 0.123-0.123 0.123v0c-0.028 0.004-0.060 0.007-0.092 0.007s-0.065-0.003-0.096-0.007l0.003 0zM24.062 31.569h0.492v-0.185h-0.492v-0.246h0.554v-0.123h-0.738v0.985h0.738v-0.185h-0.554v-0.246z"></path>
</symbol>
<symbol id="icon-company-lemon" viewBox="0 0 34 32">
<path  d="M5.638 31.314l0.229 0.152-0.457 0.305-0.686 0.152c-0.229 0-0.381 0-0.61-0.152l-0.457-0.229-0.305-0.457c-0.070-0.169-0.111-0.365-0.111-0.571s0.041-0.402 0.115-0.582l-0.004 0.010 0.305-0.457c0.152-0.076 0.305-0.229 0.533-0.229 0.182-0.061 0.392-0.096 0.61-0.096s0.427 0.035 0.624 0.1l-0.014-0.004 0.457 0.229-0.152 0.152h-0.229l-0.076-0.076c-0.17-0.096-0.374-0.153-0.59-0.153-0.007 0-0.013 0-0.020 0h0.001l-0.457 0.076-0.381 0.229c0 0.152-0.152 0.229-0.229 0.381v0.914l0.229 0.305 0.381 0.229h0.686c0.206-0.023 0.388-0.105 0.535-0.23l-0.001 0.001h0.076zM10.438 30.476l-0.076 0.61-0.381 0.457-0.457 0.229c-0.381 0.152-0.838 0.152-1.295 0-0.175-0.054-0.326-0.132-0.461-0.232l0.004 0.003-0.305-0.457c-0.070-0.169-0.111-0.365-0.111-0.571s0.041-0.402 0.115-0.582l-0.004 0.010c0-0.152 0.152-0.305 0.305-0.457l0.457-0.229c0.457-0.152 0.914-0.152 1.295 0l0.457 0.229c0.282 0.239 0.459 0.594 0.459 0.989 0 0.027-0.001 0.054-0.002 0.081l0-0.004zM9.981 30.476v-0.381c-0.091-0.293-0.317-0.519-0.603-0.608l-0.006-0.002c-0.137-0.045-0.294-0.070-0.457-0.070s-0.32 0.026-0.468 0.073l0.011-0.003-0.381 0.229-0.229 0.381v0.838c0.091 0.293 0.317 0.519 0.603 0.608l0.006 0.002h0.914l0.305-0.229c0.152-0.076 0.229-0.229 0.229-0.381l0.076-0.381zM13.714 31.010v0.076l0.076-0.076v-0.152l1.143-1.676h0.533v2.667h-0.381v-2.133l-1.067 1.676-0.152 0.076h-0.152l-1.295-1.752v2.21h-0.381v-2.667h0.457l1.067 1.676 0.076 0.152zM17.676 30.857v0.99h-0.381v-2.667h1.448c0.152 0 0.229 0.152 0.381 0.229l0.152 0.229 0.076 0.381v0.305l-0.305 0.305-0.305 0.152-0.533 0.076h-0.533zM17.676 30.552h0.838l0.229-0.152 0.152-0.152v-0.533c0-0.076 0-0.152-0.152-0.229l-0.533-0.152h-0.533v1.143zM23.314 31.848h-0.457l-0.305-0.762h-1.448l-0.305 0.762h-0.457l1.219-2.667h0.457l1.295 2.667zM21.257 30.857h1.143l-0.457-1.067-0.152-0.305v0.305l-0.533 1.067zM25.143 29.181l1.829 2.057v-2.057h0.381v2.667h-0.305l-1.905-2.133v2.057h-0.381v-2.667h0.305zM30.4 30.781v1.067h-0.381v-1.067l-1.143-1.6h0.457l0.762 1.143c0.027 0.063 0.053 0.139 0.074 0.217l0.002 0.011 0.076-0.152 0.076-0.076 0.762-1.067v-0.076h0.457l-1.067 1.6zM13.486 24.61h0.61c2.763-1.068 5.060-2.826 6.753-5.066l0.028-0.038c1.676-2.286 2.514-4.876 2.438-7.619l-3.048-2.59c0.187 0.85 0.295 1.826 0.295 2.827 0 2.040-0.445 3.975-1.244 5.715l0.035-0.085c-1.297 2.845-3.307 5.173-5.807 6.82l-0.060 0.037z"></path>
<path  d="M12.419 24.381v0.076c2.895-1.752 5.029-4.19 6.248-7.010s1.371-5.943 0.533-8.838l-4.343-3.81c1.374 2.346 2.186 5.165 2.186 8.175 0 4.436-1.763 8.46-4.628 11.41l0.004-0.004zM27.352 15.086c-0.836 3.143-2.673 5.772-5.143 7.592l-0.038 0.027-2.514 1.524c2.226-0.578 4.165-1.578 5.819-2.918l-0.029 0.022c1.524-1.295 2.895-2.895 3.657-4.648l-1.752-1.524z"></path>
<path  d="M26.667 14.705l-2.59-2.286c0 2.59-0.838 5.029-2.362 7.162s-3.657 3.886-6.248 5.105l1.752-0.076c2.362-0.838 4.495-2.286 6.095-3.962 1.553-1.604 2.697-3.613 3.257-5.854l0.019-0.089zM12.8 3.2l-3.048-2.667c-2.708 0.883-4.984 2.47-6.685 4.546l-0.020 0.025c-1.553 1.923-2.498 4.392-2.514 7.082l-0 0.004c0 2.819 1.067 5.486 3.048 7.619 1.981 2.286 4.8 3.81 7.848 4.571 2.851-2.91 4.611-6.9 4.611-11.3 0-3.704-1.247-7.117-3.344-9.842l0.028 0.038zM33.6 14.248c0-3.276-1.524-6.476-4.19-8.762-2.712-2.329-6.265-3.747-10.15-3.747-1.822 0-3.572 0.312-5.198 0.886l0.109-0.034 18.514 16.152c0.61-1.448 0.914-2.971 0.914-4.495z"></path>
</symbol>
<symbol id="icon-company-list" viewBox="0 0 43 32">
<path  d="M3.268 26.349c0.136 0.204 0.204 0.477 0.204 0.681l-0.068 0.477-0.272 0.34c-0.34 0.272-0.749 0.34-1.157 0.34h-1.974v-4.221h1.906c0.409 0 0.817 0.068 1.089 0.272l0.272 0.34 0.136 0.477c0 0.204-0.068 0.477-0.272 0.681l-0.545 0.272c0.272 0 0.477 0.204 0.681 0.34zM0.953 25.736h0.817c0.136 0 0.34 0 0.477-0.136l0.136-0.204 0.068-0.204v-0.204l-0.204-0.204c-0.136-0.136-0.34-0.136-0.545-0.136h-0.749v1.089zM2.315 27.37l0.204-0.204v-0.477l-0.136-0.204c-0.204-0.136-0.409-0.136-0.613-0.136h-0.817v1.157h0.817c0.204 0 0.408 0 0.613-0.136zM7.217 28.187l-1.089-1.634h-0.409v1.634h-0.953v-4.221h1.77c0.477 0 0.885 0.136 1.226 0.34 0.272 0.272 0.409 0.545 0.409 0.885s-0.068 0.681-0.272 0.885c-0.204 0.204-0.545 0.34-0.817 0.409l1.157 1.702h-1.021zM5.719 25.94h0.749c0.545 0 0.817-0.204 0.817-0.613l-0.068-0.272c-0.035-0.079-0.080-0.147-0.136-0.204l0 0-0.613-0.204h-0.749v1.362zM12.255 27.37h-1.838l-0.34 0.817h-0.953l1.702-4.153h1.021l1.702 4.153h-0.953l-0.34-0.817zM11.983 26.689l-0.681-1.77-0.681 1.77h1.362zM18.587 28.187h-0.885l-2.043-2.86v2.86h-0.953v-4.221h0.885l2.043 2.86v-2.86h0.953v4.221zM23.83 27.234c-0.136 0.272-0.477 0.545-0.817 0.681-0.409 0.204-0.817 0.272-1.294 0.272h-1.634v-4.221h1.702c0.477 0 0.885 0.068 1.362 0.272 0.272 0.136 0.613 0.409 0.749 0.681 0.183 0.324 0.291 0.711 0.291 1.123s-0.108 0.8-0.297 1.135l0.006-0.012zM22.808 27.098c0.249-0.267 0.402-0.626 0.402-1.021s-0.153-0.755-0.403-1.022l0.001 0.001c-0.34-0.272-0.681-0.409-1.157-0.34h-0.681v2.723h0.681c0.409 0 0.817-0.136 1.157-0.34zM12.868 0.545s11.847 4.085 11.574 10.008v10.077s-11.847-4.085-11.574-10.077v-10.008zM35.064 18.247c2.247-1.362 4.766-2.247 7.489-2.519v-3.132c-3.096 1.094-5.656 3.061-7.457 5.604l-0.032 0.047z"></path>
<path  d="M33.702 19.2c1.838-3.404 5.038-5.992 8.851-7.285v-9.055s-16.885 5.855-16.545 14.298v14.298l1.974-0.749v-1.362c0.409-3.949 2.451-7.557 5.719-10.145z"></path>
<path  d="M32.068 24.511c0.136-0.953 0.272-1.974 0.613-2.928-2.142 2.259-3.495 5.285-3.608 8.625l-0.001 0.022 3.268-1.566c-0.272-1.362-0.409-2.723-0.272-4.085zM32.749 24.511c-0.037 0.366-0.058 0.792-0.058 1.222 0 0.917 0.095 1.812 0.277 2.675l-0.015-0.084c4.63-2.519 9.804-6.468 9.6-11.166v-0.409c-3.268 0.34-6.4 1.634-8.783 3.745-0.545 1.362-0.885 2.723-1.021 4.085z"></path>
</symbol>
<symbol id="icon-diagram-1" viewBox="0 0 32 32">
<path  d="M14.903 14.949h1.097v4.8h-1.097v-4.8zM19.2 17.097h1.051v2.651h-1.051v-2.651zM10.651 18.697h1.097v1.051h-1.097v-1.006zM7.451 18.149h1.097v1.6h-1.097v-1.6z"></path>
<path  d="M1.6 28.297h25.6c0.869 0 1.6-0.731 1.6-1.6v-2.149c0-0.914-0.731-1.6-1.6-1.6h-0.549v-13.257l3.017-2.88c0.213 0.112 0.465 0.178 0.733 0.178 0.884 0 1.6-0.716 1.6-1.6s-0.716-1.6-1.6-1.6c-0.884 0-1.6 0.716-1.6 1.6 0 0.234 0.050 0.455 0.14 0.655l-0.004-0.010-2.286 2.149v-1.234c0-0.869-0.731-1.6-1.6-1.6h-21.303c-0.914 0-1.6 0.731-1.6 1.6v16h-0.549c-0.914 0-1.6 0.731-1.6 1.6v2.149c0 0.914 0.731 1.6 1.6 1.6zM30.4 4.846c0.047-0.014 0.101-0.023 0.157-0.023 0.303 0 0.549 0.246 0.549 0.549s-0.246 0.549-0.549 0.549c-0.056 0-0.11-0.008-0.161-0.024l0.004 0.001c-0.229-0.070-0.392-0.279-0.392-0.526s0.163-0.456 0.388-0.525l0.004-0.001zM3.2 6.949c0-0.274 0.229-0.503 0.549-0.503h21.303c0.274 0 0.549 0.229 0.549 0.503v2.286l-1.097 1.006v-2.194c0-0.32-0.229-0.549-0.503-0.549h-19.2c-0.274 0-0.549 0.229-0.549 0.549v13.303c0 0.32 0.274 0.549 0.549 0.549h19.2c0.274 0 0.503-0.229 0.503-0.549v-9.646l1.097-1.006v12.251h-22.4v-16zM8 13.897c-0.007-0-0.015-0-0.022-0-0.884 0-1.6 0.716-1.6 1.6s0.716 1.6 1.6 1.6c0.436 0 0.831-0.174 1.12-0.457l-0 0 1.829 0.914c0.229 0.137 0.503 0.091 0.686-0.091l3.931-4.434 3.84 2.88c0.229 0.183 0.503 0.137 0.686 0l3.383-3.2v8.137h-18.103v-12.297h18.103v2.697l-3.749 3.566-3.931-2.926c-0.229-0.183-0.549-0.137-0.731 0.046l-3.977 4.526-1.463-0.777v-0.137c0-0.914-0.686-1.6-1.554-1.6zM8.549 15.497c0 0.303-0.246 0.549-0.549 0.549s-0.549-0.246-0.549-0.549v0c0-0.303 0.246-0.549 0.549-0.549s0.549 0.246 0.549 0.549v0zM11.749 24.046h5.303v0.503c0 0.32-0.229 0.549-0.549 0.549h-4.251c-0.274 0-0.503-0.229-0.503-0.549v-0.503zM1.051 24.549c0-0.274 0.274-0.503 0.549-0.503h9.051v0.503c0 0.914 0.731 1.6 1.6 1.6h4.251c0.914 0 1.6-0.686 1.6-1.6v-0.503h9.097c0.274 0 0.503 0.229 0.503 0.503v2.149c0 0.274-0.229 0.549-0.503 0.549h-25.6c-0.274 0-0.549-0.274-0.549-0.549v-2.149z"></path>
</symbol>
<symbol id="icon-envelope-hover" viewBox="0 0 43 32">
<path  d="M38.667 0h-34.667c-2.133 0-4 1.867-4 4v24c0 2.133 1.867 4 4 4h34.667c2.133 0 4-1.867 4-4v-24c0-2.133-1.867-4-4-4zM38.667 2.667h0.533l-17.867 15.467-17.867-15.467h35.2zM38.667 29.333h-34.667c-0.736 0-1.333-0.597-1.333-1.333v0-22.4l17.867 15.467c0.22 0.166 0.498 0.267 0.8 0.267s0.58-0.1 0.803-0.269l-0.003 0.002 17.867-15.733v22.4c0 0.8-0.533 1.333-1.333 1.333z"></path>
</symbol>
<symbol id="icon-fecebook" viewBox="0 0 18 32">
<path  d="M13.28 5.28h3.040v-5.12l-4.32-0.16c-4.16 0-7.040 2.72-7.040 7.52v4.48h-4.96v5.76h4.8v14.24h5.6v-14.4h4.48l0.8-5.6h-5.12v-3.84c0-1.6 0.48-2.88 2.72-2.88z"></path>
</symbol>
<symbol id="icon-foster-peters" viewBox="0 0 65 32">
<path  d="M9.981 9.981c-1.829 0-3.276 1.295-3.276 2.971 0 1.6 1.524 2.895 3.276 2.895 1.829 0 3.352-1.295 3.352-2.895 0-1.676-1.524-2.971-3.352-2.971zM34.438 9.067c0-2.286-0.99-4.419-2.819-6.095-1.752-1.448-4.19-2.362-6.781-2.362-2.514 0-4.952 0.914-6.781 2.514-1.752 1.524-2.743 3.81-2.743 6.019v12.419s19.048-1.905 19.048-12.419zM0 25.524c0 1.6 0.762 3.048 1.981 4.19 1.238 1.079 2.865 1.741 4.645 1.752h0.003c1.829 0 3.505-0.61 4.724-1.752 1.173-1.003 1.927-2.465 1.981-4.105l0-0.009v-8.686s-13.333 1.295-13.333 8.61zM6.629 27.048c-0.305 0-0.686 0-0.914-0.229-0.305-0.152-0.533-0.381-0.686-0.686-0.076-0.229-0.152-0.61-0.076-0.838 0-0.305 0.229-0.61 0.457-0.762 0.229-0.305 0.61-0.457 0.914-0.457h0.99c0.305 0.152 0.61 0.381 0.762 0.61 0.2 0.246 0.322 0.564 0.322 0.91 0 0.424-0.182 0.805-0.473 1.070l-0.001 0.001-0.61 0.305-0.686 0.152zM20.114 26.286h-1.295v1.295h-0.533v-3.2h2.057v0.61h-1.448v0.762h1.295v0.61zM23.314 26.057c0 0.305 0 0.61-0.152 0.762-0.208 0.453-0.658 0.762-1.181 0.762-0.014 0-0.027-0-0.040-0.001l0.002 0c-0.229 0-0.457 0-0.762-0.152l-0.457-0.533-0.152-0.838v-0.152c0-0.305 0-0.61 0.152-0.838 0.208-0.453 0.658-0.762 1.181-0.762 0.014 0 0.027 0 0.040 0.001l-0.002-0c0.305 0 0.533 0 0.762 0.152 0.152 0.152 0.381 0.381 0.457 0.61 0.152 0.229 0.152 0.533 0.152 0.762v0.229zM22.705 25.905c0-0.381-0.076-0.61-0.229-0.762-0.107-0.183-0.303-0.305-0.528-0.305-0.002 0-0.004 0-0.006 0h0c-0.229 0-0.381 0.076-0.533 0.305l-0.152 0.762v0.152c0 0.305 0 0.533 0.152 0.762 0.152 0.152 0.305 0.229 0.533 0.229s0.457 0 0.533-0.229c0.152-0.152 0.152-0.457 0.229-0.762v-0.152zM25.524 26.667s0-0.152-0.152-0.229l-0.457-0.229c-0.229 0-0.457-0.152-0.533-0.229-0.381-0.152-0.61-0.457-0.61-0.762l0.152-0.457c0.152-0.152 0.229-0.305 0.457-0.381l0.61-0.076 0.61 0.076 0.457 0.381 0.152 0.533h-0.686c0-0.152 0-0.229-0.152-0.381-0.087-0.051-0.192-0.081-0.304-0.081-0.027 0-0.054 0.002-0.080 0.005l0.003-0-0.381 0.076-0.152 0.305c0 0.076 0 0.152 0.152 0.229l0.457 0.229c0.381 0.076 0.686 0.229 0.838 0.381 0.229 0.229 0.305 0.381 0.305 0.686s-0.152 0.457-0.305 0.686c-0.229 0.152-0.533 0.229-0.914 0.229-0.229 0-0.457 0-0.686-0.152l-0.457-0.381-0.152-0.533h0.686c0 0.305 0.229 0.533 0.61 0.533 0.152 0 0.305 0 0.381-0.152l0.152-0.229zM29.105 24.914h-0.99v2.667h-0.686v-2.667h-0.99v-0.61h2.667v0.61zM31.39 26.21h-1.219v0.838h1.524v0.533h-2.286v-3.2h2.286v0.61h-1.524v0.762h1.295v0.533zM33.219 26.362h-0.457v1.219h-0.61v-3.2h1.143c0.457 0 0.762 0.152 0.914 0.305 0.229 0.152 0.305 0.381 0.305 0.762 0 0.152 0 0.381-0.152 0.533 0 0.152-0.229 0.229-0.381 0.305l0.686 1.371h-0.762l-0.61-1.219zM32.762 25.905h0.61l0.381-0.076 0.076-0.381-0.076-0.381-0.457-0.076h-0.533v0.914zM36.876 26.514v1.143h-0.762v-3.276h1.371l0.61 0.152 0.457 0.381 0.152 0.61c0 0.305-0.152 0.533-0.381 0.762-0.229 0.152-0.533 0.229-0.914 0.229h-0.533zM36.876 25.981h0.61c0.152 0 0.305 0 0.381-0.152l0.152-0.305c0-0.152 0-0.305-0.152-0.381-0.096-0.094-0.228-0.152-0.373-0.152-0.003 0-0.005 0-0.008 0h-0.609v0.914zM41.067 26.286h-1.295v0.838h1.524v0.533h-2.133v-3.276h1.981v0.61h-1.524v0.762h1.295v0.533zM44.19 24.99h-0.99v2.667h-0.686v-2.667h-0.99v-0.61h2.667v0.61zM46.476 26.286h-1.219v0.838h1.524v0.533h-2.21v-3.276h2.21v0.61h-1.524v0.762h1.219v0.533zM48.381 26.438h-0.533v1.219h-0.762v-3.276h1.295c0.381 0 0.686 0.152 0.838 0.305 0.229 0.152 0.305 0.381 0.305 0.762l-0.076 0.533-0.457 0.305 0.762 1.371h-0.762l-0.61-1.219zM47.848 25.905h0.533l0.381-0.076 0.152-0.381c0-0.152 0-0.305-0.152-0.381l-0.381-0.076h-0.533v0.914zM51.733 26.819l-0.076-0.305-0.533-0.229c-0.229 0-0.381-0.152-0.533-0.229-0.381-0.152-0.533-0.457-0.533-0.762 0-0.229 0-0.381 0.152-0.457 0-0.152 0.229-0.305 0.381-0.381l0.61-0.076 0.686 0.076 0.381 0.381 0.152 0.533h-0.686c0-0.152 0-0.229-0.152-0.381-0.087-0.051-0.192-0.081-0.304-0.081-0.027 0-0.054 0.002-0.080 0.005l0.003-0-0.381 0.076-0.152 0.305 0.229 0.229 0.457 0.229c0.381 0.076 0.61 0.229 0.762 0.381 0.229 0.229 0.305 0.381 0.305 0.686s-0.076 0.457-0.305 0.686c-0.229 0.152-0.533 0.229-0.838 0.229s-0.533 0-0.762-0.152l-0.457-0.381-0.152-0.533h0.762c0 0.305 0.152 0.533 0.61 0.533 0.152 0 0.229 0 0.381-0.152l0.076-0.229z"></path>
</symbol>
<symbol id="icon-Group" viewBox="0 0 30 32">
<path  d="M29.851 22.080l-8.457-8.503 0.96-4.571c0.229 0.046 0.457 0.137 0.777 0.137 0.007 0 0.016 0 0.025 0 1.187 0 2.149-0.962 2.149-2.149s-0.962-2.149-2.149-2.149c-1.187 0-2.149 0.962-2.149 2.149 0 0.245 0.041 0.481 0.117 0.701l-0.005-0.015-4.983 0.594-8.091-8.137c-0.091-0.091-0.229-0.137-0.366-0.137s-0.274 0.046-0.366 0.137l-1.509 1.509c-0.229 0.229-0.229 0.549 0 0.777l0.823 0.777c-1.129 2.053-1.794 4.499-1.794 7.1 0 4.161 1.7 7.925 4.444 10.635l0.002 0.002-0.046 0.549v6.217h-6.4c-0.014-0-0.030-0-0.046-0-1.464 0-2.651 1.187-2.651 2.651 0 0 0 0 0 0v-0 1.051c0 0.32 0.274 0.549 0.549 0.549h24.549c0.274 0 0.503-0.229 0.503-0.549v-1.051c0-1.463-1.189-2.651-2.651-2.651h-6.4v-2.743c0.899 0.191 1.932 0.3 2.991 0.3 2.586 0 5.020-0.653 7.146-1.803l-0.080 0.039 0.869 0.823c0.091 0.091 0.229 0.137 0.366 0.137s0.274-0.046 0.366-0.137l1.509-1.509c0.229-0.229 0.229-0.549 0-0.777zM22.4 6.217c0.186-0.169 0.434-0.272 0.706-0.272 0.581 0 1.051 0.471 1.051 1.051 0 0.555-0.431 1.010-0.976 1.049l-0.003 0c-0.021 0.002-0.046 0.002-0.072 0.002-0.581 0-1.051-0.471-1.051-1.051 0-0.309 0.133-0.586 0.345-0.779l0.001-0.001zM21.166 9.737l-0.594 2.926-1.189-1.143 1.783-1.783zM20.571 8.823l-1.92 1.92-1.509-1.509 3.429-0.411zM23.086 28.8c0.914 0 1.6 0.731 1.6 1.6v0.549h-23.451v-0.549c0-0.914 0.686-1.6 1.6-1.6h20.251zM15.634 26.651v1.097h-5.349v-1.097h5.349zM10.286 25.6v-4.069c0-1.28 1.189-2.331 2.651-2.331 1.509 0 2.697 1.051 2.697 2.331v4.069h-5.349zM16.686 23.909v-2.423c0-1.829-1.691-3.383-3.749-3.383-1.326 0-2.56 0.64-3.246 1.783-2.369-2.481-3.827-5.85-3.827-9.559 0-2.319 0.57-4.505 1.578-6.426l-0.036 0.076 18.606 18.743c-1.816 0.94-3.965 1.492-6.242 1.492-1.093 0-2.157-0.127-3.177-0.367l0.094 0.019zM27.977 23.223l-0.731-0.823-19.566-19.657-0.823-0.686 0.777-0.777 7.909 8 13.257 13.12-0.777 0.777z"></path>
<path  d="M12.983 20.251c-0.884 0-1.6 0.716-1.6 1.6s0.716 1.6 1.6 1.6v0c0.884 0 1.6-0.716 1.6-1.6s-0.716-1.6-1.6-1.6v0zM13.349 22.263c-0.101 0.112-0.247 0.183-0.409 0.183-0.303 0-0.549-0.246-0.549-0.549s0.244-0.547 0.546-0.549h0c0.001 0 0.002 0 0.003 0 0.303 0 0.549 0.246 0.549 0.549 0 0.141-0.053 0.269-0.14 0.366l0-0z"></path>
</symbol>
<symbol id="icon-in0" viewBox="0 0 32 32">
<path d="M32 32v-11.68c0-5.76-1.28-10.24-8-10.24-3.2 0-5.28 1.76-6.24 3.52v-3.040h-6.56v21.44h6.56v-10.56c0-2.88 0.48-5.44 4-5.44 3.36 0 3.52 3.2 3.52 5.6v10.4h6.72zM0.48 10.56h6.72v21.44h-6.72v-21.44zM3.84 0c-2.080 0-3.84 1.6-3.84 3.84 0 2.080 1.6 3.84 3.84 3.84 2.121 0 3.84-1.719 3.84-3.84s-1.719-3.84-3.84-3.84v0z"></path>
</symbol>

<svg id="icon-instagram" viewBox="0 0 20 20"  >
<path d="M19.9804 5.88005C19.9336 4.81738 19.7617 4.0868 19.5156 3.45374C19.2616 2.78176 18.8709 2.18014 18.359 1.68002C17.8589 1.1721 17.2533 0.777435 16.5891 0.527447C15.9524 0.281274 15.2256 0.109427 14.163 0.0625732C13.0924 0.0117516 12.7525 0 10.0371 0C7.32173 0 6.98185 0.0117516 5.91521 0.0586052C4.85253 0.105459 4.12195 0.277459 3.48904 0.523479C2.81692 0.777435 2.2153 1.16814 1.71517 1.68002C1.20726 2.18014 0.812743 2.78573 0.562603 3.44992C0.31643 4.0868 0.144583 4.81341 0.0977294 5.87609C0.0469078 6.9467 0.0351562 7.28658 0.0351562 10.002C0.0351562 12.7173 0.0469078 13.0572 0.0937614 14.1239C0.140615 15.1865 0.312615 15.9171 0.558787 16.5502C0.812743 17.2221 1.20726 17.8238 1.71517 18.3239C2.2153 18.8318 2.82088 19.2265 3.48508 19.4765C4.12195 19.7226 4.84856 19.8945 5.91139 19.9413C6.97788 19.9883 7.31791 19.9999 10.0333 19.9999C12.7487 19.9999 13.0885 19.9883 14.1552 19.9413C15.2179 19.8945 15.9484 19.7226 16.5813 19.4765C17.9254 18.9568 18.9881 17.8941 19.5078 16.5502C19.7538 15.9133 19.9258 15.1865 19.9727 14.1239C20.0195 13.0572 20.0313 12.7173 20.0313 10.002C20.0313 7.28658 20.0273 6.9467 19.9804 5.88005ZM18.1794 14.0457C18.1364 15.0225 17.9723 15.5499 17.8356 15.9015C17.4995 16.7728 16.808 17.4643 15.9367 17.8004C15.5851 17.9372 15.0538 18.1012 14.0809 18.1441C13.026 18.1911 12.7096 18.2027 10.0411 18.2027C7.37255 18.2027 7.05221 18.1911 6.00113 18.1441C5.02438 18.1012 4.49693 17.9372 4.1453 17.8004C3.71171 17.6402 3.31704 17.3862 2.9967 17.0541C2.6646 16.7298 2.41065 16.3391 2.2504 15.9055C2.11365 15.5539 1.94959 15.0225 1.90671 14.0497C1.8597 12.9948 1.8481 12.6783 1.8481 10.0097C1.8481 7.34122 1.8597 7.02087 1.90671 5.96995C1.94959 4.99319 2.11365 4.46575 2.2504 4.11412C2.41065 3.68038 2.6646 3.28586 3.00067 2.96536C3.32483 2.63327 3.71553 2.37931 4.14927 2.21921C4.5009 2.08247 5.03231 1.9184 6.0051 1.87537C7.05999 1.82851 7.37652 1.81676 10.0449 1.81676C12.7174 1.81676 13.0337 1.82851 14.0848 1.87537C15.0616 1.9184 15.589 2.08247 15.9407 2.21921C16.3742 2.37931 16.7689 2.63327 17.0893 2.96536C17.4213 3.28967 17.6753 3.68038 17.8356 4.11412C17.9723 4.46575 18.1364 4.99701 18.1794 5.96995C18.2263 7.02484 18.238 7.34122 18.238 10.0097C18.238 12.6783 18.2263 12.9908 18.1794 14.0457Z" />
<path d="M10.0371 4.8642C7.20074 4.8642 4.89941 7.16537 4.89941 10.0019C4.89941 12.8385 7.20074 15.1396 10.0371 15.1396C12.8737 15.1396 15.1749 12.8385 15.1749 10.0019C15.1749 7.16537 12.8737 4.8642 10.0371 4.8642ZM10.0371 13.3346C8.19702 13.3346 6.70442 11.8422 6.70442 10.0019C6.70442 8.16165 8.19702 6.66921 10.0371 6.66921C11.8774 6.66921 13.3698 8.16165 13.3698 10.0019C13.3698 11.8422 11.8774 13.3346 10.0371 13.3346Z"/>
<path d="M16.5775 4.6611C16.5775 5.32346 16.0404 5.86052 15.3779 5.86052C14.7155 5.86052 14.1785 5.32346 14.1785 4.6611C14.1785 3.99858 14.7155 3.46167 15.3779 3.46167C16.0404 3.46167 16.5775 3.99858 16.5775 4.6611Z"/>



</svg>
<symbol id="icon-phone" viewBox="0 0 20 32">
<path  d="M17 0h-14c-1.6 0-3 1.4-3 3v26c0 1.6 1.4 3 3 3h14c1.6 0 3-1.4 3-3v-26c0-1.6-1.4-3-3-3zM3 2h14c0.6 0 1 0.4 1 1v21h-16v-21c0-0.6 0.4-1 1-1zM17 30h-14c-0.552 0-1-0.448-1-1v0-3h16v3c0 0.6-0.4 1-1 1z"></path>
</symbol>
<symbol id="icon-tag-line" viewBox="0 0 67 32">
<path d="M33.707 15.218c-0.269-0.353-0.431-0.801-0.431-1.286 0-0.048 0.002-0.096 0.005-0.143l-0 0.006v-2.062c0-0.569 0.142-1.067 0.427-1.422 0.284-0.284 0.782-0.498 1.422-0.498 0.711 0 1.209 0.142 1.422 0.427 0.356 0.356 0.498 0.782 0.427 1.209v0.498h-1.138v-0.924c0-0.142-0.142-0.213-0.213-0.284-0.117-0.089-0.266-0.142-0.427-0.142v0c-0.161 0-0.309 0.053-0.428 0.144l0.002-0.001c-0.142 0-0.213 0.142-0.213 0.284v2.987l0.071 0.711 0.284 0.142 0.284 0.071c0.142 0 0.284 0 0.427-0.142l0.142-0.284v-0.996h1.209v0.498c0 0.427-0.071 0.853-0.356 1.28-0.284 0.284-0.711 0.427-1.422 0.427s-1.209-0.142-1.422-0.498zM38.613 15.218c-0.356-0.284-0.498-0.711-0.498-1.422v-2.133c0-0.569 0.142-1.067 0.498-1.422 0.284-0.213 0.711-0.427 1.422-0.427s1.209 0.213 1.493 0.498c0.284 0.284 0.427 0.711 0.427 1.422v2.133c0 0.569-0.142 1.067-0.427 1.422-0.284 0.284-0.782 0.427-1.422 0.427-0.711 0-1.209-0.142-1.493-0.498zM40.604 14.72l0.142-0.64v-2.631c0-0.213 0-0.427-0.142-0.64l-0.213-0.142c-0.053-0.014-0.115-0.023-0.178-0.023s-0.124 0.008-0.183 0.024l0.005-0.001c-0.043-0.009-0.092-0.014-0.142-0.014s-0.099 0.005-0.147 0.015l0.005-0.001-0.213 0.142c-0.142 0.213-0.213 0.427-0.142 0.64v2.631c0 0.213 0 0.427 0.142 0.711l0.213 0.142c0.095 0.039 0.205 0.062 0.32 0.062s0.225-0.023 0.326-0.064l-0.006 0.002 0.213-0.213zM43.378 9.956h1.28l0.924 3.911 0.996-3.982h1.209l0.071 5.76h-0.853l-0.142-3.982-0.924 3.982h-0.711l-0.924-3.982-0.213 3.982h-0.924l0.142-5.689zM49.28 9.956h1.991c1.138 0 1.707 0.498 1.707 1.564s-0.64 1.564-1.778 1.564h-0.711v2.56h-1.209v-5.689zM50.987 12.373h0.356l0.284-0.213 0.213-0.64-0.071-0.498-0.071-0.142-0.213-0.142c-0.142-0.071-0.356-0.142-0.498-0.071h-0.498v1.707h0.498zM54.756 9.956h1.209l1.422 5.689h-1.209l-0.213-1.351h-1.209l-0.284 1.351h-1.138l1.422-5.689zM55.822 13.653l-0.498-2.418-0.427 2.418h0.924zM58.382 9.956h0.853l1.636 3.2v-3.2h0.996v5.689h-0.782l-1.636-3.413v3.413h-1.138v-5.689zM64.213 13.511l-1.351-3.556h1.138l0.853 2.204 0.711-2.276h1.138l-1.351 3.556v2.204h-1.138v-2.133zM35.556 18.133v0.356h-0.924v2.276h-0.498v-2.276h-0.996v-0.356h2.418zM38.684 20.764h-0.498l-0.284-0.711h-1.351l-0.284 0.711h-0.427l1.209-2.631h0.427l1.209 2.631zM36.693 19.911h1.138l-0.498-1.067-0.071-0.284v0.142l-0.071 0.142-0.498 1.067zM40.747 20.551h0.213c0.153-0.002 0.3-0.028 0.437-0.074l-0.010 0.003 0.142-0.071v-0.64h-0.569v-0.213h0.924v0.996c-0.223 0.146-0.488 0.248-0.773 0.284l-0.009 0.001h-0.356c-0.213 0-0.427 0-0.64-0.142-0.189-0.042-0.356-0.116-0.503-0.216l0.005 0.003-0.284-0.427-0.142-0.569c0-0.213 0-0.356 0.142-0.569 0-0.142 0.142-0.284 0.284-0.427 0.142-0.071 0.284-0.213 0.498-0.213 0.231-0.097 0.499-0.153 0.781-0.153 0.076 0 0.15 0.004 0.224 0.012l-0.009-0.001c0.189 0.047 0.355 0.12 0.504 0.217l-0.006-0.004 0.213 0.142-0.071 0.142h-0.284l-0.213-0.142c-0.145-0.072-0.313-0.122-0.491-0.142l-0.007-0.001c-0.184 0.018-0.353 0.069-0.506 0.146l0.008-0.004-0.356 0.142-0.213 0.356v0.924c0 0.142 0.142 0.284 0.284 0.356 0.19 0.177 0.446 0.286 0.727 0.286 0.020 0 0.039-0.001 0.058-0.002l-0.003 0zM44.587 20.48h1.351v0.284h-1.707v-2.631h0.356v2.347zM47.289 20.764h-0.356v-2.631h0.427v2.631zM48.853 18.133v0.071l1.849 1.991v-2.062h0.356v2.631h-0.356l-1.778-1.991v2.062h-0.356v-2.631h0.213zM54.044 18.133v0.284h-1.422v0.924h1.138v0.284h-1.138v0.853h1.422v0.284h-1.849v-2.631h1.849zM10.809 1.92l18.347 4.48v15.644l-18.347-4.48v-15.644zM9.6 0.498v17.991l20.693 4.978v-17.778l-20.622-5.191z"></path>
<path  d="M20.693 31.787l-20.693-5.049v-17.92l20.693 5.12v17.778z"></path>
<path d="M9.956 1.707l18.062 4.409-7.68 6.684-18.062-4.48 7.68-6.613zM9.6 0.569l-9.6 8.249 20.693 5.12 9.6-8.32-20.622-5.049zM21.831 30.791l8.533-7.324-8.533-2.062v9.387z"></path>
</symbol>
<symbol id="icon-twiter" viewBox="0 0 36 32">
<path  d="M35.556 4.978c-1.244 0.533-2.667 0.889-4.267 1.067 1.497-0.872 2.628-2.233 3.185-3.861l0.015-0.050c-1.422 0.889-2.844 1.422-4.622 1.778-1.335-1.431-3.231-2.324-5.336-2.324-4.026 0-7.289 3.263-7.289 7.289 0 0.572 0.066 1.128 0.19 1.662l-0.010-0.049c-6.044-0.356-11.378-3.2-14.933-7.644-0.625 1.053-0.994 2.32-0.994 3.674 0 2.544 1.303 4.783 3.278 6.087l0.027 0.017c-1.241-0.012-2.404-0.34-3.413-0.907l0.036 0.018c0 3.556 2.489 6.578 5.867 7.111-0.614 0.192-1.32 0.302-2.052 0.302-0.469 0-0.927-0.045-1.371-0.132l0.045 0.007c1.067 3.022 3.556 5.156 6.933 5.156-2.458 1.954-5.607 3.135-9.032 3.135-0.639 0-1.268-0.041-1.885-0.121l0.073 0.008c3.2 2.133 7.111 3.022 11.2 3.022 0.004 0 0.008 0 0.012 0 11.389 0 20.622-9.233 20.622-20.622 0-0.25-0.004-0.499-0.013-0.747l0.001 0.036c1.6-1.067 2.667-2.311 3.733-3.733z"></path>
</symbol>
<symbol id="icon-ya-co" viewBox="0 0 28 32">
<path d="M4.085 0l4.766 4.494h-8.851v21.923h23.149v-8.374l4.766 4.494v-22.536h-23.83zM22.945 17.498l-13.549-12.732h13.549v12.8zM18.723 23.217h-15.047v-14.706h1.021v13.685h14.026v1.021zM7.217 29.345l-0.545 1.157-0.545-1.226h-0.477l0.817 1.498v0.953h0.409v-0.953l0.817-1.498h-0.477zM7.898 31.796l0.204-0.613h0.953l0.204 0.613h0.409l-0.817-2.519h-0.409l-0.953 2.519h0.409zM8.579 29.889l0.34 0.953h-0.681l0.34-0.953zM10.826 30.774l-0.136 0.34c0 0.204 0.068 0.34 0.272 0.477 0.136 0.136 0.272 0.204 0.545 0.204 0.204 0 0.409 0 0.613-0.204l0.136 0.204h0.477l-0.34-0.477c0.136-0.136 0.204-0.409 0.204-0.681h-0.34c0 0.136 0 0.272-0.136 0.409l-0.477-0.545 0.204-0.136 0.204-0.204c0.056-0.084 0.089-0.187 0.089-0.298 0-0.149-0.060-0.284-0.157-0.383l0 0c-0.104-0.085-0.239-0.137-0.386-0.137-0.008 0-0.016 0-0.024 0l0.001-0c-0.019-0.002-0.042-0.003-0.064-0.003-0.156 0-0.299 0.052-0.414 0.14l0.002-0.001c-0.136 0.136-0.204 0.272-0.204 0.477l0.068 0.204 0.204 0.34c-0.131 0.075-0.244 0.166-0.339 0.271l-0.001 0.001zM11.915 31.319c-0.112 0.085-0.254 0.136-0.409 0.136v0l-0.272-0.068c-0.083-0.063-0.136-0.161-0.136-0.272v0c0-0.136 0.068-0.272 0.204-0.34h0.068l0.545 0.545zM11.438 30.298l-0.136-0.409v-0.204h0.477l0.068 0.204-0.068 0.204-0.272 0.204zM15.387 31.591c0.204-0.136 0.272-0.34 0.272-0.613h-0.409c0 0.204 0 0.272-0.136 0.34-0.068 0.136-0.204 0.136-0.409 0.136-0.005 0-0.011 0-0.017 0-0.161 0-0.304-0.080-0.39-0.203l-0.001-0.002-0.136-0.613v-0.204c0-0.272 0.068-0.477 0.204-0.613 0.068-0.136 0.204-0.136 0.409-0.136l0.34 0.068 0.136 0.409h0.409c0-0.272-0.068-0.477-0.272-0.681l-0.681-0.136c-0.136 0-0.34 0-0.477 0.136l-0.34 0.34c-0.087 0.175-0.139 0.381-0.139 0.599 0 0.029 0.001 0.058 0.003 0.086l-0-0.004v0.204c0 0.204 0 0.409 0.136 0.545 0.068 0.204 0.204 0.34 0.34 0.409l0.477 0.136c0.34 0 0.545-0.068 0.681-0.204zM17.906 31.251l0.068-0.681v-0.068c0-0.272 0-0.477-0.136-0.681-0.166-0.285-0.469-0.473-0.817-0.477h-0c-0.204 0-0.409 0-0.545 0.136-0.136 0.068-0.272 0.204-0.34 0.409-0.136 0.136-0.136 0.34-0.136 0.613v0.136c0 0.204 0 0.409 0.136 0.613 0 0.204 0.204 0.34 0.34 0.409l0.545 0.136c0.204 0 0.34 0 0.477-0.136 0.204-0.068 0.272-0.272 0.409-0.409zM17.43 29.889l0.136 0.613v0.136c0 0.272 0 0.477-0.136 0.613l-0.409 0.204c-0.024 0.004-0.052 0.007-0.081 0.007-0.164 0-0.309-0.083-0.395-0.209l-0.001-0.002-0.136-0.681v-0.068c0-0.272 0-0.477 0.136-0.681l0.477-0.136c0.136 0 0.272 0 0.409 0.204z"></path>
</symbol>
</defs>

<symbol  id="close-modal" viewBox="0 0 11 11"  xmlns="http://www.w3.org/2000/svg">
<path d="M11 1.10786L9.89214 0L5.5 4.39214L1.10786 0L0 1.10786L4.39214 5.5L0 9.89214L1.10786 11L5.5 6.60786L9.89214 11L11 9.89214L6.60786 5.5L11 1.10786Z"/>

<symbol  id="person-svg" viewBox="0 0 18 18"  xmlns="http://www.w3.org/2000/svg">
<path d="M9 9C10.6575 9 12 7.6575 12 6C12 4.3425 10.6575 3 9 3C7.3425 3 6 4.3425 6 6C6 7.6575 7.3425 9 9 9ZM9 10.5C6.9975 10.5 3 11.505 3 13.5V14.25C3 14.6625 3.3375 15 3.75 15H14.25C14.6625 15 15 14.6625 15 14.25V13.5C15 11.505 11.0025 10.5 9 10.5Z" />

<symbol  id="phone-black" viewBox="0 0 18 18"  xmlns="http://www.w3.org/2000/svg">
<path d="M13.996 11.1226L12.1579 10.9127C11.7164 10.862 11.2822 11.014 10.971 11.3252L9.63945 12.6568C7.59144 11.6147 5.91251 9.94296 4.87041 7.8877L6.20922 6.54888C6.5204 6.2377 6.67237 5.80349 6.62171 5.36205L6.41185 3.53836C6.325 2.80745 5.70988 2.25745 4.97173 2.25745H3.71976C2.902 2.25745 2.22175 2.93771 2.2724 3.75547C2.65595 9.93572 7.59868 14.8712 13.7717 15.2548C14.5894 15.3054 15.2697 14.6252 15.2697 13.8074V12.5555C15.2769 11.8245 14.7269 11.2094 13.996 11.1226Z"  />

<symbol  id="email-black" viewBox="0 0 18 18"  xmlns="http://www.w3.org/2000/svg">
<path d="M15 3H3C2.175 3 1.5075 3.675 1.5075 4.5L1.5 13.5C1.5 14.325 2.175 15 3 15H15C15.825 15 16.5 14.325 16.5 13.5V4.5C16.5 3.675 15.825 3 15 3ZM14.7 6.1875L9.3975 9.5025C9.1575 9.6525 8.8425 9.6525 8.6025 9.5025L3.3 6.1875C3.1125 6.0675 3 5.865 3 5.6475C3 5.145 3.5475 4.845 3.975 5.1075L9 8.25L14.025 5.1075C14.4525 4.845 15 5.145 15 5.6475C15 5.865 14.8875 6.0675 14.7 6.1875Z"  />

<symbol  id="icon-check" viewBox="0 0 13 10"  xmlns="http://www.w3.org/2000/svg">
<path  d="M1.95703 4.75166L1.88825 4.68604L1.81923 4.75141L0.93123 5.59258L0.854858 5.66492L0.930974 5.73753L4.42671 9.07236L4.49574 9.1382L4.56476 9.07236L12.069 1.91352L12.1449 1.84116L12.069 1.76881L11.1873 0.927644L11.1183 0.861826L11.0493 0.927611L4.49577 7.17353L1.95703 4.75166Z"  />

<svg id="icon-telegram" viewBox="0 0 24 24"  xmlns="http://www.w3.org/2000/svg">
<path d="M24 0L0 13.5L7.66994 16.3407L19.5 5.25002L10.5017 17.3896L10.509 17.3923L10.5 17.3896V24.0001L14.8013 18.982L20.2501 21.0001L24 0Z" />
</svg>

</svg>
